<?xml version="1.0" encoding="UTF-8"?>
<svg width="31px" height="24px" viewBox="0 0 31 24" version="1.1" xmlns="http://www.w3.org/2000/svg" xmlns:xlink="http://www.w3.org/1999/xlink">
    <!-- Generator: Sketch 63.1 (92452) - https://sketch.com -->
    <title>_Card Provider / Diners Club</title>
    <desc>Created with Sketch.</desc>
    <g id="Widget-Icons" stroke="none" stroke-width="1" fill="none" fill-rule="evenodd">
        <g id="4-Widget-Icons/1-Card-Vendor/Diners-Club" transform="translate(-49.000000, 0.000000)">
            <g id="_Card-Provider-/-Diners-Club" transform="translate(49.000000, 0.000000)">
                <path d="M18.1123517,23.9524752 C24.8068605,23.9837941 30.9172095,18.613497 30.9172095,12.0803168 C30.9172095,4.93592079 24.8068605,-0.00237623762 18.1123517,2.22597968e-14 L12.3509433,2.22597968e-14 C5.57624632,-0.00237623762 0,4.93739406 0,12.0803168 C0,18.6149228 5.57624632,23.9838416 12.3509433,23.9524752 L18.1123517,23.9524752 L18.1123517,23.9524752 Z" id="Shape" fill="#0079BE"></path>
                <path d="M12.3782074,0.989940594 C6.18767001,0.991841584 1.17128388,5.89877228 1.16982591,11.954899 C1.17128388,18.0099802 6.18762141,22.9164356 12.3782074,22.9183366 C18.5702027,22.9164356 23.5876094,18.0099802 23.5884842,11.954899 C23.5875608,5.89877228 18.5702027,0.991841584 12.3782074,0.989940594 L12.3782074,0.989940594 Z M5.2735233,11.954899 L5.2735233,11.954899 C5.27935518,8.99553267 7.16936929,6.47196832 9.83453705,5.46914851 L9.83453705,18.4391287 C7.16936929,17.4368792 5.27930658,14.9146931 5.2735233,11.954899 L5.2735233,11.954899 Z M14.9209057,18.4419802 L14.9209057,18.4419802 L14.9209057,5.46872079 C17.5870454,6.46911683 19.4799755,8.99410693 19.4848354,11.954899 C19.4799755,14.9165941 17.5870454,17.4396832 14.9209057,18.4419802 L14.9209057,18.4419802 Z" id="Shape" fill="#FFFFFF"></path>
                <path d="M18.1123517,23.9524752 C24.8068605,23.9837941 30.9172095,18.613497 30.9172095,12.0803168 C30.9172095,4.93592079 24.8068605,-0.00237623762 18.1123517,2.22597968e-14 L12.3509433,2.22597968e-14 C5.57624632,-0.00237623762 0,4.93739406 0,12.0803168 C0,18.6149228 5.57624632,23.9838416 12.3509433,23.9524752 L18.1123517,23.9524752 L18.1123517,23.9524752 Z" id="Shape" fill="#0079BE"></path>
                <path d="M12.3782074,0.989940594 C6.18767001,0.991841584 1.17128388,5.89877228 1.16982591,11.954899 C1.17128388,18.0099802 6.18762141,22.9164356 12.3782074,22.9183366 C18.5702027,22.9164356 23.5876094,18.0099802 23.5884842,11.954899 C23.5875608,5.89877228 18.5702027,0.991841584 12.3782074,0.989940594 L12.3782074,0.989940594 Z M5.2735233,11.954899 L5.2735233,11.954899 C5.27935518,8.99553267 7.16936929,6.47196832 9.83453705,5.46914851 L9.83453705,18.4391287 C7.16936929,17.4368792 5.27930658,14.9146931 5.2735233,11.954899 L5.2735233,11.954899 Z M14.9209057,18.4419802 L14.9209057,18.4419802 L14.9209057,5.46872079 C17.5870454,6.46911683 19.4799755,8.99410693 19.4848354,11.954899 C19.4799755,14.9165941 17.5870454,17.4396832 14.9209057,18.4419802 L14.9209057,18.4419802 Z" id="Shape" fill="#FFFFFF"></path>
            </g>
        </g>
    </g>
</svg>