<?xml version="1.0" encoding="UTF-8"?>
<svg width="39px" height="24px" viewBox="0 0 39 24" version="1.1" xmlns="http://www.w3.org/2000/svg" xmlns:xlink="http://www.w3.org/1999/xlink">
    <!-- Generator: Sketch 63.1 (92452) - https://sketch.com -->
    <title>_Card Provider / Master</title>
    <desc>Created with Sketch.</desc>
    <g id="Widget-Icons" stroke="none" stroke-width="1" fill="none" fill-rule="evenodd">
        <g id="4-Widget-Icons/1-Card-Vendor/Maestro" transform="translate(-41.000000, 0.000000)">
            <g id="_Card-Provider-/-Master" transform="translate(41.000000, 0.000000)">
                <polygon id="Fill-2" fill="#7673C0" points="14.1813248 21.3839003 24.6548911 21.3839003 24.6548911 2.5646052 14.1813248 2.5646052"></polygon>
                <path d="M14.8463343,11.9742527 C14.8463343,8.15626905 16.6342122,4.75618901 19.4182742,2.5646052 C17.3820153,0.961810066 14.8130838,0.00565183931 12.0207092,0.00565183931 C5.41018276,0.00565183931 0.0512041364,5.36426043 0.0512041364,11.9742527 C0.0512041364,18.584245 5.41018276,23.9428536 12.0207092,23.9428536 C14.8130838,23.9428536 17.3820153,22.9866954 19.4182742,21.3839003 C16.6342122,19.1923165 14.8463343,15.7922364 14.8463343,11.9742527" id="Fill-3" fill="#EB001B"></path>
                <path d="M38.4112765,19.4260151 L38.4112765,18.9260151 L38.2899123,18.9260151 L38.1502603,19.270078 L38.0109408,18.9260151 L37.8895766,18.9260151 L37.8895766,19.4260151 L37.9750303,19.4260151 L37.9750303,19.049048 L38.1060372,19.3741553 L38.1948159,19.3741553 L38.3254903,19.0483327 L38.3254903,19.4260151 L38.4112765,19.4260151 Z M37.6428581,19.4260151 L37.6428581,19.0114943 L37.7981378,19.0114943 L37.7981378,18.927088 L37.4024572,18.927088 L37.4024572,19.0114943 L37.5580694,19.0114943 L37.5580694,19.4260151 L37.6428581,19.4260151 L37.6428581,19.4260151 Z" id="Fill-4" fill="#00A1DF"></path>
                <path d="M38.7850118,11.9742527 C38.7850118,18.584245 33.4260332,23.9428536 26.8155068,23.9428536 C24.0231321,23.9428536 21.4542007,22.9866954 19.4182742,21.3839003 C22.2023363,19.1923165 23.9898817,15.7922364 23.9898817,11.9742527 C23.9898817,8.15626905 22.2023363,4.75618901 19.4182742,2.5646052 C21.4542007,0.961810066 24.0231321,0.00565183931 26.8155068,0.00565183931 C33.4260332,0.00565183931 38.7850118,5.36426043 38.7850118,11.9742527" id="Fill-5" fill="#00A1DF"></path>
            </g>
        </g>
    </g>
</svg>