<?xml version="1.0" encoding="UTF-8"?>
<svg width="38px" height="24px" viewBox="0 0 38 24" version="1.1" xmlns="http://www.w3.org/2000/svg" xmlns:xlink="http://www.w3.org/1999/xlink">
    <!-- Generator: Sketch 63.1 (92452) - https://sketch.com -->
    <title>_Card Provider / Union Pay</title>
    <desc>Created with Sketch.</desc>
    <g id="Widget-Icons" stroke="none" stroke-width="1" fill="none" fill-rule="evenodd">
        <g id="4-Widget-Icons/1-Card-Vendor/Union-Pay" transform="translate(-42.000000, 0.000000)">
            <g id="_Card-Provider-/-Union-Pay" transform="translate(42.000000, 0.000000)">
                <path d="M26.7420879,0.0588550965 L23.0095001,0.0570057133 L26.7207616,0.0609686773 C26.7278169,0.0609686773 26.7348722,0.0588550965 26.7420879,0.0588550965" id="Fill-1" fill="#CD4045"></path>
                <path d="M8.71284563,21.6547286 L13.1283568,2.3660538 C13.4192286,1.1044857 15.037143,0.0817081891 16.322976,0.0557389197 L7.75716976,0.0533636816 C6.46412106,0.0533636816 4.80627997,1.08801738 4.51059771,2.3660538 L0.0950865425,21.6547286 C0.0683083762,21.7723821 0.0533959842,21.8878187 0.0444164794,22.0005633 L0.0444164794,22.3584325 C0.130844214,23.2800249 0.843592412,23.9509504 1.86789736,23.9663103 L10.4856564,23.9663103 C9.21345303,23.9473084 8.42101172,22.918672 8.71284563,21.6547286" id="Fill-2" fill="#D8232A"></path>
                <path d="M23.0095001,0.0594402265 L16.3742875,0.0533636816 C16.3576112,0.0533636816 16.3402936,0.0554772624 16.322976,0.0573266456 L23.0095001,0.0594402265" id="Fill-3" fill="#2D4C6C"></path>
                <path d="M19.1362869,21.6547286 L23.5505153,2.3660538 C23.8413871,1.1138283 25.4384562,0.0981765062 26.7207616,0.0593809514 L23.0095001,0.0570057133 L16.322976,0.0557389197 C15.037143,0.0817081891 13.4192286,1.1044857 13.1283568,2.3660538 L8.71284563,21.6547286 C8.42101172,22.918672 9.21345303,23.9473084 10.4856564,23.9663103 L20.9095788,23.9663103 C19.636734,23.9473084 18.8454151,22.918672 19.1362869,21.6547286" id="Fill-4" fill="#0067A5"></path>
                <path d="M36.0786884,0.0604893958 L26.7444931,0.0581141577 L26.7420879,0.0581141577 C26.7348722,0.0581141577 26.7278169,0.0593809514 26.7207616,0.0593809514 C25.4384562,0.0981765062 23.8413871,1.1138283 23.5505153,2.3660538 L19.1362869,21.6547286 C18.8454151,22.918672 19.636734,23.9473084 20.9095788,23.9663103 L30.7156791,23.9663103 C31.9692822,23.9050292 33.1874482,22.9010952 33.4733492,21.6629628 L37.887738,2.37428796 C38.1832599,1.09735998 37.3728596,0.0604893958 36.0786884,0.0604893958" id="Fill-5" fill="#009294"></path>
                <path d="M16.5035282,14.1104975 L16.6656403,14.1104975 C16.8146039,14.1104975 16.9146612,14.0612509 16.9618036,13.9635495 L17.3830386,13.3409204 L18.5110889,13.3409204 L18.275858,13.7504114 L19.6283959,13.7504114 L19.4568232,14.377791 L17.8474073,14.377791 C17.6620447,14.6531603 17.433869,14.7825316 17.1596734,14.76733 L16.3212122,14.76733 L16.5035282,14.1104975 L16.5035282,14.1104975 Z M16.3183259,15.0097627 L19.2815625,15.0097627 L19.0926722,15.6912976 L17.9009636,15.6912976 L17.7191287,16.3490802 L18.8787676,16.3490802 L18.6898773,17.0306152 L17.5302384,17.0306152 L17.2608532,18.0025626 C17.1941483,18.1651872 17.2818588,18.2381862 17.5225416,18.2215596 L18.4676345,18.2215596 L18.2925342,18.854798 L16.4780328,18.854798 C16.1340857,18.854798 16.0160693,18.6606619 16.1239838,18.2711229 L16.4684119,17.0306152 L15.7271217,17.0306152 L15.9153706,16.3490802 L16.6566608,16.3490802 L16.8384958,15.6912976 L16.1299166,15.6912976 L16.3183259,15.0097627 L16.3183259,15.0097627 Z M21.0479594,13.3363283 L21.0014584,13.7352099 C21.0014584,13.7352099 21.5602722,13.3208101 22.0679349,13.3208101 L23.9438497,13.3208101 L23.2264514,15.8852754 C23.1669622,16.1785381 22.911848,16.3243777 22.4612693,16.3243777 L20.3350508,16.3243777 L19.837009,18.1251249 C19.8083067,18.2215596 19.8488748,18.2711229 19.9561478,18.2711229 L20.3744965,18.2711229 L20.2208828,18.8300955 L19.1571322,18.8300955 C18.7488854,18.8300955 18.5790766,18.7088001 18.6464229,18.465259 L20.0537999,13.3363283 L21.0479594,13.3363283 L21.0479594,13.3363283 Z M22.63653,14.0612509 L20.962173,14.0612509 L20.761898,14.753237 C20.761898,14.753237 21.0407437,14.5543504 21.5067159,14.5472246 C21.9714052,14.5400989 22.5018374,14.5472246 22.5018374,14.5472246 L22.63653,14.0612509 L22.63653,14.0612509 Z M22.0299324,15.6664368 C22.1537213,15.6830635 22.2229917,15.6346086 22.2313298,15.5205972 L22.3337924,15.1557606 L20.6568699,15.1557606 L20.5162444,15.6664368 L22.0299324,15.6664368 L22.0299324,15.6664368 Z M20.8988355,16.4950782 L21.865415,16.4950782 L21.847456,16.9080529 L22.104815,16.9080529 C22.2348575,16.9080529 22.2991572,16.8670405 22.2991572,16.7858073 L22.375483,16.5185139 L23.178828,16.5185139 L23.0715549,16.9080529 C22.9807978,17.2329855 22.740115,17.4024191 22.3493462,17.4190458 L21.8344678,17.4190458 L21.8320626,18.1251249 C21.822602,18.2381862 21.926187,18.2958253 22.1394503,18.2958253 L22.6233814,18.2958253 L22.4672022,18.854798 L21.3064408,18.854798 C20.9810941,18.8701579 20.8215476,18.7170342 20.8249149,18.39226 L20.8988355,16.4950782 L20.8988355,16.4950782 Z" id="Fill-6" fill="#FFFFFE"></path>
                <path d="M25.0069589,14.138842 L25.2311259,13.359764 L26.3644676,13.359764 L26.3155614,13.6457426 C26.3155614,13.6457426 26.8947395,13.359764 27.3118054,13.359764 L28.7132496,13.359764 L28.4905258,14.138842 L28.2700469,14.138842 L27.2128705,17.813177 L27.4333494,17.813177 L27.2236138,18.5430084 L27.0031349,18.5430084 L26.9114157,18.8595485 L25.8136712,18.8595485 L25.9055508,18.5430084 L23.740047,18.5430084 L23.9510654,17.813177 L24.1680166,17.813177 L25.2261551,14.138842 L25.0069589,14.138842 L25.0069589,14.138842 Z M26.2297751,14.138842 L25.9413085,15.133275 C25.9413085,15.133275 26.4347002,14.9462646 26.8602646,14.893376 C26.954389,14.5459578 27.0770555,14.138842 27.0770555,14.138842 L26.2297751,14.138842 L26.2297751,14.138842 Z M25.8077383,15.5994551 L25.5183097,16.6410762 C25.5183097,16.6410762 26.0652577,16.3750495 26.4406331,16.3525639 C26.5490285,15.9501986 26.6575843,15.5994551 26.6575843,15.5994551 L25.8077383,15.5994551 L25.8077383,15.5994551 Z M26.0198792,17.813177 L26.2368304,17.0576929 L25.3908328,17.0576929 L25.1725987,17.813177 L26.0198792,17.813177 L26.0198792,17.813177 Z M28.7610334,13.3114675 L29.8265478,13.3114675 L29.871766,13.699898 C29.8647107,13.798708 29.9241999,13.845896 30.0505544,13.845896 L30.2388033,13.845896 L30.0483095,14.5036786 L29.2651684,14.5036786 C28.9661188,14.5188801 28.8123448,14.4061355 28.7980738,14.1624361 L28.7610334,13.3114675 L28.7610334,13.3114675 Z M28.4488352,14.7226756 L31.900172,14.7226756 L31.6976521,15.428913 L30.5987852,15.428913 L30.410376,16.0854288 L31.5081204,16.0854288 L31.3043178,16.7903995 L30.081662,16.7903995 L29.8050611,17.2036909 L30.4033207,17.2036909 L30.5417012,18.0309071 C30.5582171,18.1134071 30.6321377,18.1534694 30.7584921,18.1534694 L30.9443358,18.1534694 L30.7490316,18.8346877 L30.0911225,18.8346877 C29.750222,18.8513143 29.5739992,18.738253 29.5595679,18.4947119 L29.4009834,17.7390695 L28.8564406,18.5430084 C28.7276809,18.7700812 28.5298111,18.8760168 28.2629915,18.8595485 L27.2582491,18.8595485 L27.4537137,18.1780135 L27.7671946,18.1780135 C27.8959543,18.1780135 28.0030669,18.1214829 28.0995966,18.0074714 L28.9518478,16.7903995 L27.8529809,16.7903995 L28.0567836,16.0854288 L29.2484922,16.0854288 L29.4380239,15.428913 L28.2450325,15.428913 L28.4488352,14.7226756 L28.4488352,14.7226756 Z" id="Fill-7" fill="#FFFFFE"></path>
                <path d="M9.18603347,9.91962751 C9.05502891,10.5539744 8.75100853,11.0412149 8.27974487,11.3872079 C7.81248992,11.727342 7.21006135,11.8980425 6.47229882,11.8980425 C5.77815103,11.8980425 5.26920552,11.7238583 4.94450021,11.3742233 C4.71921085,11.1259317 4.60712738,10.8105001 4.60712738,10.4291952 C4.60712738,10.2714794 4.62636918,10.1020458 4.66437173,9.91962751 L5.4503991,6.17704408 L6.63745757,6.17704408 L5.86217354,9.87718992 C5.83828164,9.97964186 5.82882109,10.0749681 5.82994353,10.1607933 C5.82882109,10.3503373 5.87644453,10.5056779 5.97297421,10.6268151 C6.11359967,10.8070164 6.3417753,10.8964837 6.65942529,10.8964837 C7.02469872,10.8964837 7.32567248,10.8081249 7.55929995,10.6304571 C7.79292743,10.4538977 7.94541866,10.2032309 8.01388739,9.87718992 L8.79157665,6.17704408 L9.97254188,6.17704408 L9.18603347,9.91962751" id="Fill-8" fill="#FFFFFE"></path>
                <path d="M10.2794485,8.44602982 L11.1179098,8.44602982 L11.0220215,8.92867819 L11.1422827,8.79091439 C11.4140731,8.50382728 11.7442303,8.361313 12.1338766,8.361313 C12.4866429,8.361313 12.7411156,8.46249814 12.9008226,8.66613521 C13.0581242,8.86977229 13.1010976,9.15100048 13.0265356,9.51235336 L12.5647325,11.7884648 L11.7030207,11.7884648 L12.120247,9.72533304 C12.16306,9.51235336 12.1511942,9.35352911 12.0849704,9.25107717 C12.0195483,9.14862524 11.8943163,9.09811184 11.7137641,9.09811184 C11.4921627,9.09811184 11.3056777,9.16636035 11.1536675,9.30174892 C11.0010159,9.43824593 10.9003172,9.62778993 10.8509299,9.86895577 L10.466575,11.7884648 L9.60325975,11.7884648 L10.2794485,8.44602982" id="Fill-9" fill="#FFFFFE"></path>
                <path d="M19.894093,8.44602982 L20.7331957,8.44602982 L20.6379488,8.92867819 L20.7569272,8.79091439 C21.0288779,8.50382728 21.3601575,8.361313 21.7486815,8.361313 C22.1014477,8.361313 22.3564015,8.46249814 22.5148256,8.66613521 C22.6711652,8.86977229 22.7163835,9.15100048 22.6400577,9.51235336 L22.1800184,11.7884648 L21.3171842,11.7884648 L21.7344105,9.72533304 C21.7773838,9.51235336 21.7651973,9.35352911 21.6997752,9.25107717 C21.6317875,9.14862524 21.5091211,9.09811184 21.3292103,9.09811184 C21.1074486,9.09811184 20.9216049,9.16636035 20.7678309,9.30174892 C20.6151793,9.43824593 20.5139995,9.62778993 20.4663761,9.86895577 L20.0802574,11.7884648 L19.2179042,11.7884648 L19.894093,8.44602982" id="Fill-10" fill="#FFFFFE"></path>
                <path d="M14.1712621,8.44729662 L15.1008012,8.44729662 L14.3726596,11.7873564 L13.4448843,11.7873564 L14.1712621,8.44729662 M14.4638978,7.23038299 L15.401775,7.23038299 L15.2266747,8.04113091 L14.2886371,8.04113091 L14.4638978,7.23038299" id="Fill-11" fill="#FFFFFE"></path>
                <path d="M15.9238691,11.5330475 C15.6806207,11.3035995 15.5577939,10.9941852 15.5566715,10.6010041 C15.5566715,10.5338641 15.5608405,10.4573814 15.56982,10.3739314 C15.5787995,10.2892146 15.5901843,10.2067146 15.6062191,10.130232 C15.7163784,9.58772758 15.9512886,9.15701775 16.3128741,8.83921089 C16.6739784,8.5202956 17.1096448,8.36020455 17.6197127,8.36020455 C18.03742,8.36020455 18.3686996,8.47548277 18.6111463,8.70619756 C18.8537532,8.9380208 18.9752972,9.25107717 18.9752972,9.64900872 C18.9752972,9.71709888 18.9700057,9.79595678 18.9610262,9.88067361 C18.9502829,9.96665722 18.9372947,10.0489988 18.922222,10.130232 C18.8144679,10.6646605 18.580199,11.0906199 18.2186136,11.4025678 C17.8568678,11.7167326 17.4224843,11.8731816 16.915944,11.8731816 C16.4964729,11.8731816 16.1663157,11.7602787 15.9238691,11.5330475 M17.6953971,10.8717813 C17.8592731,10.6963304 17.976648,10.4303037 18.0481634,10.0760765 C18.0589067,10.0208127 18.0683673,9.96317354 18.0743001,9.90553443 C18.080233,9.84900377 18.0826383,9.79595678 18.0826383,9.74781862 C18.0826383,9.54180631 18.029563,9.38171527 17.9229313,9.26881228 C17.8169411,9.15448416 17.6662137,9.09811184 17.4712302,9.09811184 C17.2138712,9.09811184 17.0041356,9.18742079 16.8397786,9.36635539 C16.6739784,9.54528999 16.5566035,9.81606713 16.4826829,10.1761532 C16.472581,10.2314171 16.4642428,10.2868393 16.4565461,10.3409947 C16.4506132,10.3962586 16.4488494,10.4480388 16.4499719,10.4950685 C16.4499719,10.699814 16.5028868,10.8575298 16.6096788,10.9693244 C16.715669,11.0811189 16.8659153,11.1365411 17.0631438,11.1365411 C17.3217856,11.1365411 17.5315211,11.0481823 17.6953971,10.8717813" id="Fill-12" fill="#FFFFFE"></path>
                <path d="M24.0416622,6.37466389 L26.4776735,6.37466389 C26.9460509,6.37466389 27.3082777,6.47949106 27.5572987,6.68534503 C27.8051971,6.89373258 27.9293067,7.19269588 27.9293067,7.58223492 L27.9293067,7.59395276 C27.9293067,7.66806018 27.9243359,7.75166856 27.9172806,7.84224431 C27.9052545,7.93171161 27.889861,8.0224457 27.8696572,8.11650513 C27.7623841,8.63209014 27.5132029,9.04633165 27.128367,9.36049647 C26.7420879,9.67355285 26.2846142,9.83126865 25.75787,9.83126865 L24.4515124,9.83126865 L24.047595,11.7884648 L22.9164981,11.7884648 L24.0416622,6.37466389 M24.6505047,8.88988264 L25.7338178,8.88988264 C26.0163515,8.88988264 26.2405184,8.82495947 26.403753,8.69669661 C26.5658651,8.56732531 26.6731381,8.36970551 26.7326273,8.10130361 C26.7420879,8.05189865 26.7481811,8.00708583 26.7552365,7.96591504 C26.7589245,7.92696113 26.7635746,7.88816558 26.7635746,7.85063682 C26.7635746,7.65871758 26.6946248,7.51984533 26.5562442,7.43275327 C26.418024,7.34439441 26.2010727,7.30211517 25.9007404,7.30211517 L24.9806618,7.30211517 L24.6505047,8.88988264" id="Fill-13" fill="#FFFFFE"></path>
                <path d="M32.9918233,12.4346879 C32.6344069,13.1855798 32.2935064,13.623257 32.0933917,13.8268941 C31.8929564,14.0283143 31.4962547,14.4967112 30.5404185,14.461241 L30.6226771,13.8881753 C31.4269842,13.6433674 31.8620091,12.5404652 32.1099076,12.0521162 L31.8143857,8.45553077 L32.4365371,8.44729662 L32.9584708,8.44729662 L33.0145927,10.7034561 L33.9928777,8.44729662 L34.9833492,8.44729662 L32.9918233,12.4346879" id="Fill-14" fill="#FFFFFE"></path>
                <path d="M30.2222874,8.7191822 L29.8287927,8.9863173 C29.4176596,8.66851045 29.0422843,8.47199909 28.3178307,8.80389902 C27.3308869,9.25582765 26.5062155,12.7219334 29.2234779,11.5802356 L29.3783743,11.7613871 L30.4474164,11.7884648 L31.1494213,8.6390575 L30.2222874,8.7191822 M29.614407,10.4409131 C29.442674,10.9411382 29.0591208,11.2719297 28.7587885,11.1777119 C28.4584561,11.0858694 28.3511831,10.6033794 28.525161,10.1020458 C28.6967337,9.60055387 29.0828524,9.27102917 29.3807795,9.36524695 C29.6811119,9.45708949 29.7895074,9.93957951 29.614407,10.4409131" id="Fill-15" fill="#FFFFFE"></path>
            </g>
        </g>
    </g>
</svg>