<svg width="252" height="150" viewBox="0 0 252 150" fill="none" xmlns="http://www.w3.org/2000/svg">
<rect width="252" height="149.568" rx="14.5036" fill="url(#paint0_linear_454_28903)"/>
<rect y="21.7554" width="252" height="29.0072" fill="#274FC4"/>
<rect y="21.7554" width="252" height="29.0072" fill="white" fill-opacity="0.3"/>
<rect x="14.5037" y="84.0576" width="222.993" height="29.2518" rx="1.81295" fill="white"/>
<path d="M202.246 103.379C202.333 103.495 202.357 103.577 202.319 103.625C202.29 103.664 202.232 103.683 202.145 103.683H201.042C200.936 103.683 200.859 103.645 200.81 103.567L198.055 99.4194C197.997 99.3227 197.943 99.2744 197.895 99.2744C197.856 99.2744 197.798 99.3324 197.721 99.4484L195.009 103.567C194.99 103.606 194.956 103.635 194.907 103.654C194.859 103.674 194.811 103.683 194.762 103.683H193.805C193.728 103.683 193.675 103.664 193.646 103.625C193.617 103.577 193.646 103.495 193.733 103.379L197.054 98.3752C197.102 98.3075 197.122 98.2495 197.112 98.2011C197.112 98.1431 197.088 98.0802 197.039 98.0126L193.805 93.1394C193.776 93.1007 193.766 93.0572 193.776 93.0088C193.786 92.9508 193.824 92.9218 193.892 92.9218H195.067C195.144 92.9218 195.197 92.9315 195.226 92.9508C195.265 92.9701 195.294 93.004 195.313 93.0523L197.852 96.9248C197.9 96.9925 197.943 97.0263 197.982 97.0263C198.031 97.0263 198.079 96.9925 198.127 96.9248L200.665 93.0523C200.694 93.004 200.723 92.9701 200.752 92.9508C200.791 92.9315 200.839 92.9218 200.897 92.9218H201.956C202.024 92.9218 202.058 92.946 202.058 92.9943C202.067 93.033 202.058 93.0717 202.029 93.1103L198.809 97.911C198.77 97.9691 198.751 98.0222 198.751 98.0706C198.751 98.1093 198.77 98.1624 198.809 98.2301L202.246 103.379ZM212.09 103.379C212.177 103.495 212.201 103.577 212.162 103.625C212.133 103.664 212.075 103.683 211.988 103.683H210.886C210.78 103.683 210.702 103.645 210.654 103.567L207.898 99.4194C207.84 99.3227 207.787 99.2744 207.739 99.2744C207.7 99.2744 207.642 99.3324 207.565 99.4484L204.853 103.567C204.833 103.606 204.799 103.635 204.751 103.654C204.703 103.674 204.654 103.683 204.606 103.683H203.649C203.572 103.683 203.518 103.664 203.489 103.625C203.46 103.577 203.489 103.495 203.576 103.379L206.898 98.3752C206.946 98.3075 206.965 98.2495 206.956 98.2011C206.956 98.1431 206.932 98.0802 206.883 98.0126L203.649 93.1394C203.62 93.1007 203.61 93.0572 203.62 93.0088C203.63 92.9508 203.668 92.9218 203.736 92.9218H204.911C204.988 92.9218 205.041 92.9315 205.07 92.9508C205.109 92.9701 205.138 93.004 205.157 93.0523L207.695 96.9248C207.744 96.9925 207.787 97.0263 207.826 97.0263C207.874 97.0263 207.923 96.9925 207.971 96.9248L210.509 93.0523C210.538 93.004 210.567 92.9701 210.596 92.9508C210.635 92.9315 210.683 92.9218 210.741 92.9218H211.8C211.868 92.9218 211.901 92.946 211.901 92.9943C211.911 93.033 211.901 93.0717 211.872 93.1103L208.653 97.911C208.614 97.9691 208.595 98.0222 208.595 98.0706C208.595 98.1093 208.614 98.1624 208.653 98.2301L212.09 103.379ZM221.934 103.379C222.021 103.495 222.045 103.577 222.006 103.625C221.977 103.664 221.919 103.683 221.832 103.683H220.73C220.624 103.683 220.546 103.645 220.498 103.567L217.742 99.4194C217.684 99.3227 217.631 99.2744 217.583 99.2744C217.544 99.2744 217.486 99.3324 217.409 99.4484L214.696 103.567C214.677 103.606 214.643 103.635 214.595 103.654C214.547 103.674 214.498 103.683 214.45 103.683H213.493C213.415 103.683 213.362 103.664 213.333 103.625C213.304 103.577 213.333 103.495 213.42 103.379L216.741 98.3752C216.79 98.3075 216.809 98.2495 216.799 98.2011C216.799 98.1431 216.775 98.0802 216.727 98.0126L213.493 93.1394C213.464 93.1007 213.454 93.0572 213.464 93.0088C213.473 92.9508 213.512 92.9218 213.58 92.9218H214.754C214.832 92.9218 214.885 92.9315 214.914 92.9508C214.953 92.9701 214.982 93.004 215.001 93.0523L217.539 96.9248C217.587 96.9925 217.631 97.0263 217.67 97.0263C217.718 97.0263 217.766 96.9925 217.815 96.9248L220.353 93.0523C220.382 93.004 220.411 92.9701 220.44 92.9508C220.479 92.9315 220.527 92.9218 220.585 92.9218H221.644C221.711 92.9218 221.745 92.946 221.745 92.9943C221.755 93.033 221.745 93.0717 221.716 93.1103L218.496 97.911C218.458 97.9691 218.438 98.0222 218.438 98.0706C218.438 98.1093 218.458 98.1624 218.496 98.2301L221.934 103.379Z" fill="#091C35"/>
<defs>
<linearGradient id="paint0_linear_454_28903" x1="-178.191" y1="0" x2="-85.3521" y2="-156.419" gradientUnits="userSpaceOnUse">
<stop stop-color="#274FC4"/>
<stop offset="1" stop-color="#3366FF"/>
</linearGradient>
</defs>
</svg>