<?xml version="1.0" encoding="UTF-8"?>
<svg width="542px" height="342px" viewBox="0 0 542 342" version="1.1" xmlns="http://www.w3.org/2000/svg" xmlns:xlink="http://www.w3.org/1999/xlink">
    <!-- Generator: Sketch 57.1 (83088) - https://sketch.com -->
    <title>image</title>
    <desc>Created with Sketch.</desc>
    <g id="Headers" stroke="none" stroke-width="1" fill="none" fill-rule="evenodd" opacity="0.600000024">
        <g id="Headers/1-Page/Business-v2/1-Desktop-(XL,-L)/Default" transform="translate(-626.000000, 0.000000)" fill="#0073B8">
            <g id="image" transform="translate(626.000000, -120.000000)">
                <path d="M247.7887,538.535341 C312.16261,447.65593 331.263828,365.656252 311.651705,264.374634 C309.558647,253.560947 303.370116,244.212128 294.239766,238.048162 C285.134138,231.900655 274.166181,229.670435 263.379514,231.768981 C252.576365,233.859298 243.231766,240.023264 237.067956,249.141655 C230.912386,258.251816 228.671,269.221865 230.764059,280.010863 C238.106244,317.941064 238.130966,352.209095 230.846463,384.7736 C229.857616,389.209351 232.651108,393.603954 237.092677,394.591506 C241.558967,395.587287 245.942853,392.789225 246.9317,388.353473 C254.718866,353.550519 254.727107,317.068727 246.948181,276.867158 C245.695642,270.382238 247.038825,263.798562 250.730519,258.325882 C254.422212,252.853202 260.025676,249.158114 266.519102,247.898986 C273.004287,246.648088 279.563635,247.981282 285.018772,251.659911 C290.50687,255.354999 294.215045,260.967582 295.492305,267.468962 C314.165024,363.919808 295.879603,442.150332 234.348628,529.00547 C231.719944,532.717018 232.601665,537.844055 236.31808,540.485755 C237.768389,541.506224 239.424707,542 241.072784,542 C243.635545,542 246.181824,540.798479 247.7887,538.535341" id="Path" opacity="0.3"></path>
                <path d="M419.022318,497.799042 C450.732295,416.785701 457.085651,335.008239 439.031736,240.429683 C434.406688,216.166762 424.880712,193.637494 410.737802,173.458106 C408.141284,169.760743 403.086188,168.889809 399.418606,171.519045 C395.767252,174.148281 394.899042,179.275292 397.503674,182.980871 C410.29964,201.229414 418.916834,221.614211 423.095606,243.560117 C440.540962,334.917859 434.455372,413.778512 403.93817,491.760015 C402.291004,495.975009 404.327648,500.756933 408.498305,502.424855 C409.480114,502.81924 410.47815,503 411.476187,503 C414.705606,503 417.764629,501.036289 419.022318,497.799042" id="Path" opacity="0.3"></path>
                <path d="M382.125503,150.062281 C385.010601,146.624182 384.510627,141.531597 381.00261,138.698797 C350.250092,113.744328 311.4652,100 271.770518,100 C260.754691,100 249.730667,101.041115 239.018103,103.107203 C225.904022,105.609106 213.052224,109.620222 200.83154,115.043703 C196.708801,116.875742 194.864634,121.653571 196.725194,125.713111 C198.577558,129.772651 203.421571,131.588549 207.560703,129.75651 C218.625708,124.849551 230.264454,121.217755 242.149089,118.949901 C251.837116,117.085579 261.803817,116.141313 271.770518,116.141313 C307.662116,116.141313 342.758674,128.578194 370.576917,151.15182 C372.101428,152.394701 373.9374,153 375.781567,153 C378.150298,153 380.486243,151.999239 382.125503,150.062281" id="Path" opacity="0.3"></path>
                <path d="M349.998267,328.93669 C349.646638,305.892815 347.103459,282.087633 342.376907,257.725795 C335.687773,223.114959 305.341349,198 270.186599,198 C265.484579,198 260.758028,198.458422 256.14596,199.350707 C236.83906,203.099941 220.148935,214.151178 209.142121,230.466078 C203.859504,238.308363 200.171486,246.969258 198.184372,256.211366 C197.23579,260.631861 200.040647,264.986867 204.456457,265.936455 C208.888621,266.861484 213.222656,264.070024 214.171237,259.657715 C215.716771,252.462132 218.595224,245.708598 222.700292,239.609953 C231.253878,226.921496 244.239629,218.309717 259.261559,215.395465 C262.851449,214.699647 266.53129,214.3149 270.186599,214.3149 C297.515553,214.3149 321.123779,233.797821 326.324622,260.713722 C330.846738,284.142344 333.308143,307.096172 333.643417,329.182273 C333.708836,333.660071 337.347791,337 341.820842,337 C341.853552,336.991814 341.902616,336.991814 341.943503,336.991814 C346.465619,336.991814 350.063686,333.439046 349.998267,328.93669 Z" id="Path" opacity="0.1"></path>
                <path d="M475.901592,256.52584 C474.68156,248.537663 473.322329,240.500226 471.750207,232.38069 C453.14676,135.972497 368.669753,66 270.86246,66 C257.769629,66 244.660422,67.2643159 231.92787,69.7601084 C178.246445,80.1866097 131.81971,110.965313 101.204267,156.431427 C84.8771222,180.675095 74.085158,207.480235 69.1231472,236.09154 C68.3452742,240.557695 71.3339441,244.810394 75.7882905,245.590329 C80.2917657,246.370264 84.4840917,243.373671 85.2619647,238.907516 C89.8227568,212.586758 99.7549667,187.932597 114.772009,165.618242 C142.9392,123.789089 185.648521,95.4733385 235.04755,85.8760314 C246.772962,83.585485 258.817711,82.4196872 270.86246,82.4196872 C360.841895,82.4196872 438.563689,146.801281 455.676894,235.500431 C457.199888,243.42293 458.526366,251.255121 459.713646,259.046262 C460.327756,263.101925 463.82409,266 467.795337,266 C468.212932,265.99179 468.630527,265.958951 469.05631,265.893272 C473.527032,265.203645 476.597584,261.008415 475.901592,256.52584 Z" id="Path" opacity="0.2"></path>
                <path d="M53.6213419,315.255494 C42.3783969,256.919272 54.4249951,197.669102 87.5305887,148.414722 C120.644383,99.1603423 170.86451,65.8218294 228.940759,54.5333381 C251.894079,50.0212351 275.929872,49.2143262 299.736049,52.3596242 C304.254549,52.8948189 308.354821,49.7742222 308.928859,45.2703529 C309.519298,40.7582499 306.370289,36.6249001 301.868191,36.032069 C276.331699,32.6562255 250.467185,33.5207708 225.816352,38.3704582 C163.451219,50.4987934 109.508045,86.3074357 73.9422883,139.209373 C38.3847323,192.103077 25.4442748,255.741844 37.5236752,318.392559 C40.5824779,334.283724 42.5998116,344.765307 23.4187406,373.130626 C20.8683716,376.893456 21.8524368,382.023092 25.6000852,384.575559 C27.0105786,385.538909 28.6096846,386 30.20059,386 C32.8083628,385.991766 35.3833334,384.732 36.9742388,382.377144 C59.9849635,348.346994 57.0327679,333.007491 53.6213419,315.255494 Z" id="Path" opacity="0.1"></path>
                <path d="M542,272.345577 C542,255.144565 540.395102,238.36149 537.078314,221.037555 L535.786166,214.375133 L535.613331,214.375133 C520.790661,149.242381 481.902757,90.3868926 428.126342,52.0759194 C424.422732,49.4289794 419.29529,50.2894398 416.636921,53.9689322 C413.995013,57.6484246 414.834498,62.7702124 418.529877,65.4007627 C470.742546,102.60543 508.033782,160.477535 520.881194,224.176187 L521.218634,225.839743 C524.13214,241.532901 525.539512,256.758952 525.539512,272.345577 C525.539512,276.86914 529.218431,280.540438 533.769756,280.540438 C538.321081,280.540438 542,276.86914 542,272.345577 M66.1935412,118.406403 C104.03485,67.6877628 159.160277,33.1176883 221.438885,21.0637031 C237.213617,17.9702025 253.48054,16.4111439 269.772072,16.4111439 C308.605967,16.4111439 346.053523,25.1172557 381.105748,42.2751066 C385.190935,44.2690605 390.104645,42.5951239 392.081614,38.5169546 C394.066786,34.4469909 392.385132,29.5318534 388.31635,27.5378994 C351.008249,9.26409071 311.132549,0 269.772072,0 C252.422328,0 235.097194,1.6657311 218.305267,4.95616544 C152.023503,17.7896799 93.3378922,54.59167 53.0438299,108.592539 C50.3285745,112.227607 51.0832678,117.364295 54.7090772,120.072134 C56.1856511,121.171681 57.9001175,121.705043 59.6063807,121.705043 C62.1165565,121.705043 64.5857162,120.564468 66.1935412,118.406403 M211.162368,530.990444 C276.877243,443.358036 297.025749,365.209405 278.578891,269.672477 C277.715736,265.214361 273.38352,262.294378 268.944436,263.158035 C264.488912,264.021692 261.578846,268.331752 262.433781,272.798093 C280.173673,364.510254 261.496641,436.448779 198.017748,521.111852 C195.288534,524.747437 196.028381,529.904704 199.661853,532.619055 C201.141548,533.729471 202.876079,534.264116 204.585948,534.264116 C207.084987,534.288792 209.551145,533.1537 211.162368,530.990444 M177.902637,521.822324 C202.310537,490.063211 219.959702,460.605602 231.850521,431.741929 C233.582905,427.534878 231.62279,422.700893 227.47483,420.943831 C223.310603,419.17027 218.560782,421.158308 216.836531,425.373608 C205.51504,452.859677 188.581602,481.088168 165.076493,511.667657 C162.311186,515.264273 162.94558,520.436472 166.491679,523.232924 C167.980065,524.412548 169.736848,524.981737 171.485498,524.981737 C173.909209,524.998235 176.300386,523.909352 177.902637,521.822324 M147.020161,505.386855 C205.915955,431.746339 225.961219,372.096944 216.18905,299.517482 C215.581369,295.001829 211.417932,291.900916 206.950655,292.468457 C202.458742,293.077124 199.30537,297.214417 199.913051,301.721845 C209.143234,370.229816 190.715716,424.458782 134.209587,495.113539 C131.368267,498.66684 131.943101,503.848737 135.482432,506.669992 C136.993423,507.887326 138.808255,508.479543 140.614874,508.479543 C143.012751,508.471318 145.402416,507.434939 147.020161,505.386855 M285.692125,538.257327 C321.20231,483.235919 341.581429,429.25917 347.98209,373.242458 C348.488912,368.726573 345.284493,364.646648 340.796673,364.136658 C336.292504,363.626667 332.254283,366.85935 331.747462,371.367009 C325.632909,424.792639 306.079418,476.449754 271.975254,529.291363 C269.514718,533.108067 270.593757,538.199747 274.378567,540.67567 C275.760064,541.572266 277.305051,542 278.825515,542 C281.498588,542 284.138963,540.683895 285.692125,538.257327 M328.021245,534.312273 C379.97671,444.378006 395.002527,354.542397 375.288265,251.593599 C369.500965,221.412715 351.04835,195.153455 324.683984,179.565616 C320.809505,177.263614 315.819892,178.579044 313.557065,182.500668 C311.2861,186.422292 312.588446,191.453809 316.462925,193.747589 C338.790019,206.951212 354.401891,229.173749 359.310108,254.717744 C378.218543,353.522939 363.82762,439.732896 313.972188,526.025068 C311.717502,529.954913 313.027987,534.986431 316.894327,537.263768 C318.180394,538.036583 319.596695,538.390105 320.996717,538.390105 C323.780481,538.390105 326.507268,536.951354 328.021245,534.312273 M120.143163,488.438486 C179.026231,415.710892 195.732857,361.810003 181.797006,289.575255 C177.21457,265.852949 182.116711,241.769224 195.609893,221.759689 C209.103076,201.741941 229.547788,188.196899 253.197747,183.597006 C261.28054,182.011685 269.666643,181.617409 277.790425,182.266322 C282.258094,182.627742 286.258503,179.259964 286.619196,174.742211 C286.988086,170.224459 283.627087,166.257052 279.110232,165.895632 C269.51089,165.115293 259.608238,165.608138 250.066279,167.464524 C222.1208,172.885826 197.954395,188.903311 182.01834,212.551689 C166.082285,236.191853 160.28661,264.653691 165.696999,292.680182 C178.575365,359.43613 162.778668,409.681746 107.412353,478.064084 C104.559603,481.596145 105.092444,486.771025 108.609197,489.613101 C110.125745,490.845216 111.953801,491.461273 113.765462,491.461273 C116.159149,491.477701 118.520046,490.442725 120.143163,488.438486 M372.230771,521.467249 C384.829194,496.765666 394.976987,471.2968 402.396246,445.76193 C403.659456,441.380988 401.074085,436.818538 396.602319,435.572733 C392.122131,434.310428 387.465094,436.86804 386.201883,441.248982 C379.077374,465.802059 369.325386,490.297383 357.181719,514.083176 C355.101632,518.158854 356.777492,523.117322 360.937666,525.155161 C362.15877,525.732686 363.438824,526.013199 364.702034,526.013199 C367.784269,526.029699 370.748604,524.371377 372.230771,521.467249 M95.408552,466.252637 C117.131439,439.423108 132.234095,415.610982 141.561483,393.483367 C143.317033,389.312973 141.356395,384.52111 137.172607,382.77118 C132.980615,381.029428 128.189766,382.975611 126.434216,387.12965 C117.713888,407.826248 103.382361,430.346371 82.6356914,455.982022 C79.7890744,459.498236 80.3469129,464.649898 83.8662175,467.479224 C85.3838663,468.689455 87.2050449,469.286394 89.0098164,469.286394 C91.413444,469.286394 93.7924611,468.247884 95.408552,466.252637 M73.2015966,442.964265 C126.46858,375.063723 125.080568,340.313943 117.740437,301.945768 C109.86143,260.849372 118.295641,219.10183 141.491763,184.401505 C149.819832,171.955544 159.82168,160.795392 171.236034,151.2425 C174.706063,148.332947 175.187784,143.140262 172.305619,139.63726 C169.423454,136.134258 164.279647,135.656201 160.809618,138.557511 C148.203207,149.107729 137.148104,161.430054 127.954569,175.178306 C102.317179,213.521754 93.0011727,259.65423 101.704821,305.061379 C108.465254,340.363397 109.461356,370.184247 60.3992315,432.719015 C57.5987142,436.296198 58.1947427,441.472399 61.7382544,444.299527 C63.2405728,445.502912 65.0204934,446.079877 66.8004141,446.079877 C69.2090223,446.088119 71.5931362,445.016613 73.2015966,442.964265 M468.279914,456.974726 C481.425459,406.93238 485.807308,355.932761 481.711055,301.062781 C481.36834,296.515728 477.451604,293.132258 472.971837,293.4541 C468.467591,293.792447 465.097566,297.753583 465.44028,302.292384 C469.405976,355.297329 465.179165,404.506185 452.515052,452.724757 C451.35635,457.123268 453.959348,461.653817 458.308557,462.825653 C459.010305,463.007205 459.728374,463.097981 460.413803,463.097981 C464.020464,463.106233 467.31705,460.663533 468.279914,456.974726 M52.8613247,413.447796 C95.1545696,357.928082 90.3763257,333.347587 85.3170087,307.30475 C83.614036,298.59642 82.5228107,289.625196 82.0598667,280.60468 C81.8366615,276.061561 78.0256401,272.578229 73.3879328,272.816475 C68.8328941,273.046507 65.3194795,276.907748 65.5509515,281.434436 C66.046963,291.21077 67.2373905,300.970672 69.0808998,310.426604 C73.7930088,334.678483 77.5213617,353.83681 39.6756863,403.51537 C36.9228227,407.130148 37.6337724,412.289423 41.2794568,415.016938 C42.7757581,416.142449 44.5283319,416.684666 46.2643721,416.684666 C48.7609632,416.709312 51.2327537,415.583801 52.8613247,413.447796 M504.468845,399.151284 C504.206202,399.151284 503.927144,399.134831 503.623463,399.118377 C499.117494,398.641222 495.842664,394.610086 496.285874,390.085342 C501.423828,339.564512 498.542962,287.250237 487.536579,230.115053 C472.336115,151.433858 415.695511,86.7958251 339.717817,61.4161214 C335.425245,59.9764299 333.094288,55.3200564 334.530617,51.0092088 C335.966946,46.7065881 340.579614,44.3619477 344.913223,45.8098659 C426.488497,73.0570552 487.331389,142.491318 503.648085,226.997093 C514.982772,285.736505 517.921091,339.630326 512.627193,391.763611 C512.216813,396.000417 508.638302,399.151284 504.468845,399.151284" id="icon" stroke="#000000" opacity="0.1"></path>
                <path d="M16.8122535,340.762405 C21.2735037,339.705517 24.0233619,335.281334 22.9599726,330.881731 C22.7938181,330.201717 22.6276635,329.628212 22.4698167,329.095672 L22.4864321,329.095672 L20.7418091,319.321505 C9.64268368,263.945487 18.3741065,205.579048 44.9671457,154.963122 C47.0773088,150.948586 45.9142268,146.000056 41.8434398,143.919051 C37.764345,141.838047 33.6104807,143.41109 31.5003177,147.425626 C3.32050221,201.048357 -9.14939843,262.872213 7.46605879,321.607333 L7.46605879,321.648298 C7.46605879,327.850346 7.00082599,330.127981 7.89806068,332.700561 C8.08913843,333.25768 6.59374728,333.855764 6.8014405,334.716022 C7.71529065,338.460191 11.1214594,341 14.8765527,341 C15.5162478,340.983614 16.1642506,340.901685 16.8122535,340.762405" id="Path" fill-opacity="0.05"></path>
            </g>
        </g>
    </g>
</svg>