<svg width="41" height="72" viewBox="0 0 41 72" fill="none" xmlns="http://www.w3.org/2000/svg">
<rect x="0.129883" width="40.5" height="72" rx="8.06" fill="#181E41"/>
<rect x="0.129883" width="40.5" height="72" rx="8.06" fill="white" fill-opacity="0.85"/>
<path fill-rule="evenodd" clip-rule="evenodd" d="M1.25488 7.325C1.25488 3.90083 4.03072 1.125 7.45488 1.125H33.3049C36.729 1.125 39.5049 3.90083 39.5049 7.325V64.835C39.5049 68.1708 36.8007 70.875 33.4649 70.875H7.29488C3.95908 70.875 1.25488 68.1708 1.25488 64.835V7.325Z" fill="url(#paint0_linear_0_825)"/>
<path fill-rule="evenodd" clip-rule="evenodd" d="M22.8199 59.6358H17.9474L18.6469 60.8607H18.9281L18.9684 60.8621H22.2401C22.3249 60.8621 22.5293 60.904 22.5307 61.1781V63.7158C22.5293 63.9913 22.3249 64.0318 22.2401 64.0318L18.1142 64.0413L18.1115 63.0014H21.5083V61.8345L18.0389 61.8385L16.7286 59.625H15.3174L16.8994 62.3923L16.8981 65.2486H18.0779V65.25H22.8966C23.4387 65.25 23.7549 64.776 23.7549 63.8238V60.8661C23.7549 60.0518 23.4387 59.6358 22.8199 59.6358Z" fill="white"/>
<mask id="mask0_0_825" style="mask-type:alpha" maskUnits="userSpaceOnUse" x="15" y="59" width="9" height="7">
<path fill-rule="evenodd" clip-rule="evenodd" d="M22.8199 59.6358H17.9474L18.6469 60.8607H18.9281L18.9684 60.8621H22.2401C22.3249 60.8621 22.5293 60.904 22.5307 61.1781V63.7158C22.5293 63.9913 22.3249 64.0318 22.2401 64.0318L18.1142 64.0413L18.1115 63.0014H21.5083V61.8345L18.0389 61.8385L16.7286 59.625H15.3174L16.8994 62.3923L16.8981 65.2486H18.0779V65.25H22.8966C23.4387 65.25 23.7549 64.776 23.7549 63.8238V60.8661C23.7549 60.0518 23.4387 59.6358 22.8199 59.6358Z" fill="white"/>
</mask>
<g mask="url(#mask0_0_825)">
</g>
<defs>
<linearGradient id="paint0_linear_0_825" x1="41.7393" y1="75.6634" x2="41.7393" y2="-2.23546" gradientUnits="userSpaceOnUse">
<stop stop-color="#181E41"/>
<stop offset="1" stop-color="#23345E"/>
</linearGradient>
</defs>
</svg>
